<svg width="54" height="51" viewBox="0 0 54 51" fill="none" xmlns="http://www.w3.org/2000/svg">
<path fill-rule="evenodd" clip-rule="evenodd" d="M26.6526 23.3081C11.9328 23.3081 0 35.2409 0 49.9607C0 50.1589 0.00216338 50.3565 0.00646782 50.5537L53.2986 50.5537C53.3029 50.3565 53.3051 50.1589 53.3051 49.9607C53.3051 35.2409 41.3723 23.3081 26.6526 23.3081Z" fill="url(#paint0_linear_11778_9547)"/>
<path d="M20.6364 0.839508C20.4587 0.932228 20.2811 1.10994 20.1884 1.29539C20.034 1.59673 20.034 1.73581 20.034 10.4516V19.2987H15.8251C11.7552 19.2987 11.6007 19.3065 11.3073 19.4533C11.1065 19.5537 10.9443 19.716 10.8439 19.9169C10.6895 20.2182 10.6895 20.3496 10.6895 29.7685C10.6895 39.1874 10.6895 39.3188 10.8439 39.6201C10.9443 39.821 11.1065 39.9833 11.3073 40.0837C11.6085 40.2383 11.7397 40.2383 21.1538 40.2383C30.5678 40.2383 30.6991 40.2383 31.0003 40.0837C31.2011 39.9833 31.3633 39.821 31.4637 39.6201C31.6104 39.3265 31.6181 39.172 31.6181 35.1V30.8889H40.4607C49.1797 30.8889 49.311 30.8889 49.6122 30.7344C49.813 30.6339 49.9751 30.4717 50.0755 30.2708C50.23 29.9694 50.23 29.8458 50.23 15.7831C50.23 1.72036 50.23 1.59673 50.0755 1.29539C49.9751 1.09449 49.813 0.932228 49.6122 0.831779C49.311 0.677246 49.1951 0.677246 35.1165 0.677246C21.1383 0.684971 20.9144 0.684971 20.6364 0.839508ZM47.9132 15.7831V28.5709H39.7656H31.6181V24.3984C31.6181 20.365 31.6104 20.2105 31.4637 19.9169C31.3633 19.716 31.2011 19.5537 31.0003 19.4533C30.7068 19.3065 30.5524 19.2987 26.5211 19.2987H22.3508V11.147V2.99527H35.132H47.9132V15.7831ZM20.034 25.7892C20.034 29.8226 20.0417 29.9771 20.1884 30.2708C20.2888 30.4717 20.451 30.6339 20.6518 30.7344C20.9453 30.8812 21.0997 30.8889 25.131 30.8889H29.3013V34.4046V37.9203H21.1538H13.0063V29.7685V21.6168H16.5201H20.034V25.7892ZM29.3013 25.0938V28.5709H25.8261H22.3508V25.0938V21.6168H25.8261H29.3013V25.0938Z" fill="white"/>
<path d="M39.1718 5.55128C38.8396 5.72128 38.5693 6.17721 38.5693 6.54813C38.5693 6.93451 38.8396 7.37498 39.1872 7.55272C39.4421 7.68409 39.6429 7.70727 40.5157 7.70727H41.5429L37.8587 11.3933C35.8352 13.4257 34.1283 15.1953 34.0588 15.3344C33.5876 16.2771 34.638 17.3281 35.5803 16.8567C35.7193 16.7872 37.488 15.0794 39.5193 13.0547L43.2035 9.3687V10.3965C43.2035 11.2697 43.2266 11.4706 43.3579 11.7256C43.5356 12.0733 43.9758 12.3438 44.362 12.3438C44.7482 12.3438 45.1884 12.0733 45.3661 11.7256C45.5128 11.4397 45.5205 11.2774 45.5205 8.8664C45.5205 6.4554 45.5128 6.29312 45.3661 6.0072C45.2656 5.80628 45.1035 5.64401 44.9026 5.54355C44.6169 5.39672 44.4547 5.389 42.0295 5.389C39.6197 5.39672 39.4421 5.40445 39.1718 5.55128Z" fill="white"/>
<defs>
<linearGradient id="paint0_linear_11778_9547" x1="9.7289e-09" y1="34.5617" x2="136.475" y2="32.8662" gradientUnits="userSpaceOnUse">
<stop stop-color="#FC6D0B"/>
<stop offset="0.255208" stop-color="#891DF5"/>
<stop offset="0.560333" stop-color="#3127E7"/>
<stop offset="1" stop-color="#1028E5"/>
</linearGradient>
</defs>
</svg>
