<svg width="60" height="43" viewBox="0 0 60 43" fill="none" xmlns="http://www.w3.org/2000/svg">
<mask id="mask0_11778_9578" style="mask-type:alpha" maskUnits="userSpaceOnUse" x="0" y="0" width="60" height="43">
<rect y="0.818359" width="59.6002" height="41.5815" fill="#D9D9D9"/>
</mask>
<g mask="url(#mask0_11778_9578)">
<circle cx="19.1705" cy="9.83944" r="9.02108" fill="url(#paint0_linear_11778_9578)"/>
<circle cx="28.7548" cy="11.5307" r="8.0849" stroke="white" stroke-width="3"/>
<path fill-rule="evenodd" clip-rule="evenodd" d="M18.6541 23.3706C8.35174 23.3706 0 31.7223 0 42.0247C0 42.1632 0.00150936 42.3014 0.00451252 42.4392L37.3038 42.4392C37.3068 42.3014 37.3083 42.1632 37.3083 42.0247C37.3083 31.7223 28.9565 23.3706 18.6541 23.3706Z" fill="url(#paint1_linear_11778_9578)"/>
<mask id="mask1_11778_9578" style="mask-type:alpha" maskUnits="userSpaceOnUse" x="9" y="24" width="43" height="44">
<circle cx="30.4446" cy="45.9241" r="19.9251" stroke="white" stroke-width="3"/>
</mask>
<g mask="url(#mask1_11778_9578)">
<circle cx="31.0075" cy="18.2971" r="25.3718" fill="white"/>
</g>
<path d="M54.8428 13.2935L45.198 21.7002" stroke="white" stroke-width="3"/>
<path d="M42.4268 17.4512L46.5849 21.6093" stroke="white" stroke-width="3"/>
</g>
<defs>
<linearGradient id="paint0_linear_11778_9578" x1="9.37174" y1="0.818357" x2="24.6126" y2="22.4455" gradientUnits="userSpaceOnUse">
<stop stop-color="#FC6D0B"/>
<stop offset="0.513847" stop-color="#891DF5"/>
<stop offset="0.897798" stop-color="#1028E5"/>
</linearGradient>
<linearGradient id="paint1_linear_11778_9578" x1="6.80926e-09" y1="31.2467" x2="95.5191" y2="30.06" gradientUnits="userSpaceOnUse">
<stop stop-color="#FC6D0B"/>
<stop offset="0.255208" stop-color="#891DF5"/>
<stop offset="0.560333" stop-color="#3127E7"/>
<stop offset="1" stop-color="#1028E5"/>
</linearGradient>
</defs>
</svg>
