<svg width="171" height="35" fill="none" xmlns="http://www.w3.org/2000/svg"><path fill-rule="evenodd" clip-rule="evenodd" d="M38.4333 14.082c.4817-1.7712.2821-3.1312-.5985-4.078-.8807-.94762-2.4228-1.42099-4.6265-1.42099h-8.4528L19.6689 27.3178h4.1066l2.0502-7.5525h2.6932c.6035 0 1.0792.097 1.4272.2901.348.1931.5524.5355.6153 1.0262l.7323 6.2362h4.3994l-.7136-5.8152c-.1455-1.2978-.747-2.0613-1.8056-2.2892 1.3495-.3851 2.4788-1.0262 3.3881-1.9207.9091-.8943 1.5332-1.9642 1.8713-3.2107Zm-3.9207.1057c-.229.842-.6723 1.4598-1.3309 1.8547-.6584.3947-1.5824.5926-2.7736.5926h-3.7872l1.3299-4.8947h3.7861c1.1912 0 2.008.1969 2.4523.5918.4434.3947.5515 1.0136.3234 1.8556ZM50.2131 13.9772l-.5142 1.8944c-.223-.6838-.6525-1.228-1.2895-1.6306-.6379-.4035-1.4271-.6062-2.3697-.6062-1.1549 0-2.2656.2939-3.3321.8817-1.0654.5879-1.9972 1.4172-2.7943 2.4871-.7972 1.0699-1.3819 2.2892-1.7535 3.657-.3715 1.3687-.4462 2.5744-.2221 3.6182.2231 1.0436.7077 1.8468 1.4527 2.4075.745.5617 1.7043.842 2.8779.842.9416 0 1.839-.193 2.6902-.5791.8512-.3851 1.5736-.9206 2.1693-1.6044l-.5368 1.973h3.972l3.6229-13.3406h-3.9728Zm-1.7997 6.6312c-.3431 1.2629-.8719 2.2281-1.5855 2.8945-.7145.6664-1.5697 1.0001-2.5643 1.0001-1.0144 0-1.7024-.3288-2.0651-.9875-.3647-.6576-.3774-1.6083-.0383-2.8547.3371-1.2455.8767-2.2185 1.6188-2.9208.7411-.7012 1.609-1.0524 2.6057-1.0524.9946 0 1.668.3385 2.0179 1.0136.3488.6751.3537 1.6442.0108 2.9072ZM68.4695 13.9771H56.9244l-.8069 2.974h6.719l-8.8834 7.5777-.7578 2.7888h11.9176l.808-2.973h-7.1978l9.017-7.6836.7294-2.6839ZM80.9575 14.4767c-.9141-.5606-2.0818-.8419-3.504-.8419-1.4399 0-2.7737.2813-4.0023.8419-1.2277.5616-2.2734 1.3687-3.1364 2.4212-.863 1.0524-1.4862 2.2805-1.8675 3.6841-.3804 1.4036-.4256 2.6307-.1327 3.6831.2919 1.0535.8984 1.8595 1.8222 2.4212.923.5617 2.1044.842 3.5444.842 1.4223 0 2.7423-.2803 3.962-.842 1.2169-.5617 2.2587-1.3677 3.1226-2.4212.863-1.0524 1.4853-2.2795 1.8666-3.6831.3814-1.4036.4256-2.6317.1337-3.6841-.292-1.0525-.8955-1.8596-1.8086-2.4212Zm-2.3245 6.1056c-.3568 1.3153-.8866 2.298-1.5864 2.9469-.7008.649-1.5491.9729-2.5437.9729-2.0799 0-2.7649-1.3056-2.0552-3.9198.3528-1.2988.8846-2.2766 1.5962-2.9342.7116-.6577 1.5736-.9866 2.5869-.9866.9957 0 1.667.3289 2.012.9866.346.6576.344 1.6354-.0098 2.9342ZM124.308 13.9772l-.514 1.8944c-.224-.6838-.653-1.228-1.29-1.6306-.638-.4035-1.427-.6062-2.37-.6062-1.154 0-2.265.2939-3.332.8817-1.065.5879-1.997 1.4172-2.795 2.4871-.797 1.0699-1.381 2.2892-1.753 3.657-.371 1.3687-.445 2.5744-.222 3.6182.223 1.0436.707 1.8468 1.453 2.4075.745.5617 1.704.842 2.878.842.942 0 1.839-.193 2.69-.5791.851-.3851 1.574-.9206 2.169-1.6044l-.536 1.973h3.971l3.623-13.3406h-3.972Zm-1.8 6.6312c-.343 1.2629-.872 2.2281-1.586 2.8945-.714.6664-1.57 1.0001-2.564 1.0001-1.013 0-1.703-.3288-2.065-.9875-.365-.6576-.378-1.6083-.039-2.8547.338-1.2455.878-2.2185 1.62-2.9208.741-.7012 1.608-1.0524 2.605-1.0524.995 0 1.668.3385 2.018 1.0136.349.6751.354 1.6442.011 2.9072ZM95.1208 17.5557l1.0123-3.6307c-.344-.1756-.7999-.2639-1.3681-.2639-.9072 0-1.7801.2241-2.6214.6713-.7234.3841-1.3387.9224-1.8576 1.5986l.5258-1.9556-1.15.0019h-2.8209L83.1914 27.318h4.0269l1.8931-6.9726c.2762-1.0175.7706-1.811 1.4861-2.3813.7137-.5704 1.6051-.8556 2.6716-.8556.6584 0 1.2748.1494 1.8517.4472ZM109.146 14.516c-.747-.5878-1.699-.8807-2.854-.8807-1.013 0-1.979.228-2.891.6839-.916.4568-1.658 1.0786-2.228 1.8682l.013-.0883.677-2.1243h-.779v.0019h-3.1523l-1.0018 3.689c-.0116.0427-.0213.0834-.0319.1261l-4.1304 15.2098h4.027l2.0799-7.6573c.2029.6839.627 1.2193 1.2685 1.6044.643.3862 1.435.5791 2.376.5791 1.174 0 2.29-.2803 3.35-.8419 1.058-.5607 1.978-1.3638 2.759-2.4076.78-1.0428 1.357-2.2494 1.728-3.6182.372-1.3686.449-2.587.234-3.6579-.215-1.0689-.698-1.8983-1.444-2.4862Zm-2.814 6.1441c-.34 1.2464-.864 2.1971-1.576 2.8547-.713.6587-1.566.9866-2.56.9866-.996 0-1.674-.3327-2.035-.9992-.3619-.6664-.3716-1.6316-.028-2.8945.343-1.263.877-2.233 1.602-2.9081.726-.6752 1.587-1.0127 2.582-1.0127.978 0 1.642.3512 1.994 1.0525.351.7023.358 1.6762.021 2.9207ZM144.953 13.9809l.003-.0038h-2.44c-.078 0-.146.0019-.218.0038h-1.265l-.648.8895c-.052.068-.104.1349-.159.2134l-.07.1029-5.146 7.0704-1.066-8.28h-4.213l2.134 12.5821-4.714 6.4428h4.199l1.143-1.5966c.033-.0476.062-.0864.097-.1368l1.333-1.8644.038-.0534 5.963-8.3431 5.025-7.021.007-.0058h-.003Z" fill="#fff"/><path fill-rule="evenodd" clip-rule="evenodd" d="m9.32026 10.7291-1.20503 4.3777 6.89697-4.402-4.5105 16.6086 4.5803.0039 6.663-24.53166L9.32026 10.7291Z" fill="#3395FF"/><path fill-rule="evenodd" clip-rule="evenodd" d="M1.896 20.3355 0 27.3177h9.38859s3.84021-14.2001 3.84111-14.2049c-.0029.0029-11.3337 7.2227-11.3337 7.2227Z" fill="#fff"/><path fill-rule="evenodd" clip-rule="evenodd" d="m148.746 6.79004 5.268 6.79006-3.341 3.8918-8.327-10.68186h6.4Z" fill="#FC6D0B"/><path fill-rule="evenodd" clip-rule="evenodd" d="m164.323 0-21.977 28.1305h5.824L169.739 0h-5.416Z" fill="#fff"/><path fill-rule="evenodd" clip-rule="evenodd" d="m152.457 19.9763 11.458 14.944h6.808l-16.272-20.8554-1.994 5.9114Z" fill="#fff"/></svg>
