<svg width="56" height="46" viewBox="0 0 56 46" fill="none" xmlns="http://www.w3.org/2000/svg">
<circle cx="20.1423" cy="22.8567" r="19.6521" fill="url(#paint0_linear_11778_9558)"/>
<g clip-path="url(#clip0_11778_9558)">
<path d="M34 28.4814C37.0376 28.4814 39.5 25.963 39.5 22.8564C39.5 19.7498 37.0376 17.2314 34 17.2314C30.9624 17.2314 28.5 19.7498 28.5 22.8564C28.5 25.963 30.9624 28.4814 34 28.4814Z" stroke="white" stroke-width="3" stroke-linecap="round" stroke-linejoin="round"/>
<path d="M47.5663 28.4814C47.3223 29.047 47.2495 29.6743 47.3573 30.2825C47.4652 30.8908 47.7487 31.452 48.1713 31.8939L48.2813 32.0064C48.6223 32.3547 48.8927 32.7683 49.0772 33.2235C49.2618 33.6788 49.3567 34.1668 49.3567 34.6596C49.3567 35.1524 49.2618 35.6404 49.0772 36.0956C48.8927 36.5508 48.6223 36.9644 48.2813 37.3127C47.9408 37.6614 47.5364 37.938 47.0913 38.1267C46.6462 38.3154 46.169 38.4125 45.6872 38.4125C45.2053 38.4125 44.7282 38.3154 44.2831 38.1267C43.8379 37.938 43.4335 37.6614 43.093 37.3127L42.983 37.2002C42.5509 36.7679 42.0021 36.478 41.4074 36.3677C40.8127 36.2574 40.1993 36.3319 39.6463 36.5814C39.1041 36.8191 38.6416 37.2138 38.3159 37.7168C37.9902 38.2199 37.8154 38.8093 37.813 39.4127V39.7314C37.813 40.726 37.4267 41.6798 36.7391 42.3831C36.0514 43.0864 35.1188 43.4814 34.1463 43.4814C33.1739 43.4814 32.2413 43.0864 31.5536 42.3831C30.866 41.6798 30.4797 40.726 30.4797 39.7314V39.5627C30.4655 38.9421 30.2691 38.3402 29.9159 37.8353C29.5628 37.3303 29.0694 36.9457 28.4997 36.7314C27.9467 36.4819 27.3333 36.4074 26.7386 36.5177C26.1439 36.628 25.5951 36.9179 25.163 37.3502L25.053 37.4627C24.7125 37.8114 24.3081 38.088 23.863 38.2767C23.4178 38.4654 22.9407 38.5625 22.4588 38.5625C21.977 38.5625 21.4999 38.4654 21.0547 38.2767C20.6096 38.088 20.2052 37.8114 19.8647 37.4627C19.5238 37.1144 19.2533 36.7008 19.0688 36.2456C18.8843 35.7904 18.7893 35.3024 18.7893 34.8096C18.7893 34.3168 18.8843 33.8288 19.0688 33.3735C19.2533 32.9183 19.5238 32.5047 19.8647 32.1564L19.9747 32.0439C20.3973 31.602 20.6808 31.0408 20.7887 30.4325C20.8965 29.8243 20.8237 29.197 20.5797 28.6314C20.3473 28.0769 19.9614 27.6039 19.4695 27.2708C18.9777 26.9376 18.4013 26.7589 17.8113 26.7564H17.4997C16.5272 26.7564 15.5946 26.3614 14.9069 25.6581C14.2193 24.9548 13.833 24.001 13.833 23.0064C13.833 22.0119 14.2193 21.0581 14.9069 20.3548C15.5946 19.6515 16.5272 19.2564 17.4997 19.2564H17.6647C18.2715 19.2419 18.86 19.041 19.3537 18.6799C19.8474 18.3188 20.2235 17.8141 20.433 17.2314C20.6771 16.6659 20.7499 16.0386 20.642 15.4303C20.5342 14.8221 20.2507 14.2608 19.828 13.8189L19.718 13.7064C19.3771 13.3582 19.1066 12.9446 18.9221 12.4893C18.7376 12.0341 18.6426 11.5461 18.6426 11.0533C18.6426 10.5605 18.7376 10.0725 18.9221 9.61729C19.1066 9.16205 19.3771 8.74847 19.718 8.4002C20.0585 8.05153 20.4629 7.77494 20.9081 7.58622C21.3532 7.39751 21.8303 7.30037 22.3122 7.30037C22.794 7.30037 23.2712 7.39751 23.7163 7.58622C24.1614 7.77494 24.5658 8.05153 24.9063 8.4002L25.0163 8.5127C25.4484 8.94495 25.9972 9.23492 26.5919 9.3452C27.1867 9.45549 27.8 9.38104 28.353 9.13144H28.4997C29.0419 8.89376 29.5044 8.49911 29.8301 7.99607C30.1559 7.49302 30.3307 6.90355 30.333 6.3002V5.98145C30.333 4.98688 30.7193 4.03306 31.407 3.32979C32.0946 2.62653 33.0272 2.23145 33.9997 2.23145C34.9721 2.23145 35.9048 2.62653 36.5924 3.32979C37.28 4.03306 37.6663 4.98688 37.6663 5.98145V6.1502C37.6687 6.75354 37.8435 7.34302 38.1692 7.84607C38.495 8.34911 38.9574 8.74376 39.4997 8.98145C40.0526 9.23104 40.666 9.30549 41.2608 9.1952C41.8555 9.08492 42.4043 8.79495 42.8363 8.3627L42.9463 8.2502C43.2869 7.90153 43.6913 7.62494 44.1364 7.43622C44.5815 7.24751 45.0587 7.15037 45.5405 7.15037C46.0224 7.15037 46.4995 7.24751 46.9446 7.43622C47.3898 7.62494 47.7941 7.90153 48.1347 8.2502C48.4756 8.59847 48.746 9.01205 48.9306 9.46729C49.1151 9.92254 49.2101 10.4105 49.2101 10.9033C49.2101 11.3961 49.1151 11.8841 48.9306 12.3393C48.746 12.7946 48.4756 13.2082 48.1347 13.5564L48.0247 13.6689C47.602 14.1108 47.3185 14.6721 47.2107 15.2803C47.1028 15.8886 47.1756 16.5159 47.4197 17.0814V17.2314C47.6521 17.786 48.038 18.259 48.5298 18.5921C49.0217 18.9253 49.5981 19.104 50.188 19.1064H50.4997C51.4721 19.1064 52.4048 19.5015 53.0924 20.2048C53.78 20.9081 54.1663 21.8619 54.1663 22.8564C54.1663 23.851 53.78 24.8048 53.0924 25.5081C52.4048 26.2114 51.4721 26.6064 50.4997 26.6064H50.3347C49.7447 26.6089 49.1684 26.7876 48.6765 27.1208C48.1846 27.4539 47.7987 27.9269 47.5663 28.4814V28.4814Z" stroke="white" stroke-width="3" stroke-linecap="round" stroke-linejoin="round"/>
</g>
<defs>
<linearGradient id="paint0_linear_11778_9558" x1="-1.2039" y1="3.20459" x2="31.9978" y2="50.3185" gradientUnits="userSpaceOnUse">
<stop stop-color="#FC6D0B"/>
<stop offset="0.513847" stop-color="#891DF5"/>
<stop offset="0.897798" stop-color="#1028E5"/>
</linearGradient>
<clipPath id="clip0_11778_9558">
<rect width="44" height="45" fill="white" transform="translate(12 0.356445)"/>
</clipPath>
</defs>
</svg>
